<?xml version="1.0" standalone="no"?>
<!DOCTYPE svg PUBLIC "-//W3C//DTD SVG 20010904//EN"
 "http://www.w3.org/TR/2001/REC-SVG-20010904/DTD/svg10.dtd">
<svg version="1.0" xmlns="http://www.w3.org/2000/svg"
 width="50" height="50" viewBox="0 0 500.000000 500.000000"
 preserveAspectRatio="xMidYMid meet">

<g transform="translate(0.000000,500.000000) scale(0.100000,-0.100000)"
fill="#837e9f" stroke="none">
<path d="M2666 4235 c-9 -9 -18 -26 -21 -38 -3 -12 -4 -380 -3 -818 3 -767 4
-798 22 -818 23 -26 62 -27 98 -3 52 34 313 235 331 254 14 17 17 40 17 145 0
118 1 125 25 148 24 25 62 31 97 17 17 -7 540 -457 640 -551 51 -47 58 -59 58
-91 0 -37 -9 -46 -342 -347 -189 -169 -460 -412 -603 -538 -143 -127 -278
-247 -300 -267 l-40 -37 -3 -274 -3 -274 31 -27 c60 -50 57 -52 304 174 88 80
187 170 220 200 34 30 157 142 274 250 595 544 774 706 867 785 38 33 128 112
200 175 72 63 139 120 150 126 13 7 21 24 23 46 3 33 -3 40 -180 195 -182 160
-375 330 -1302 1148 -504 445 -521 458 -560 420z"/>
<path d="M1770 3728 c-316 -281 -669 -594 -785 -696 -599 -528 -605 -533 -605
-564 0 -18 9 -37 23 -48 141 -119 888 -770 1177 -1025 736 -652 780 -690 814
-693 69 -6 65 -57 67 846 1 766 0 814 -16 832 -36 40 -66 27 -248 -105 -95
-68 -179 -125 -187 -125 -35 0 -40 -22 -40 -167 0 -159 -2 -163 -72 -163 -28
0 -53 16 -149 98 -63 53 -130 113 -149 133 -19 20 -126 116 -237 213 -142 123
-203 183 -203 198 0 11 14 32 31 47 61 51 316 288 463 430 150 144 399 368
596 536 58 50 124 109 148 133 l43 43 -3 278 c-3 305 -5 311 -62 311 -27 -1
-112 -72 -606 -512z"/>
</g>
</svg>